<svg id="Layer_1" data-name="Layer 1" xmlns="http://www.w3.org/2000/svg" viewBox="0 0 16 16"><defs><style>.cls-1{fill:#e6e6e6;stroke:#000;stroke-miterlimit:10;}</style></defs><rect class="cls-1" x="1" y="1" width="14" height="14" rx="0.55"/><path d="M10.25,8.53H6.75L7.1,6.75h4.43a.81.81,0,0,1,.39.1,1.06,1.06,0,0,1,.51.64.9.9,0,0,1,0,.43L12,10.11a1.12,1.12,0,0,1-.19.42,1.52,1.52,0,0,1-.34.38,1.88,1.88,0,0,1-.42.27,1.07,1.07,0,0,1-.44.1H3.94a.81.81,0,0,1-.39-.1,1.18,1.18,0,0,1-.32-.27A1.23,1.23,0,0,1,3,10.53a.86.86,0,0,1,0-.42L4,5.17a1.24,1.24,0,0,1,.19-.43,2.37,2.37,0,0,1,.34-.37,1.73,1.73,0,0,1,.43-.27A1,1,0,0,1,5.36,4h7.86l-.38,2H5.91L5.25,9.32h4.84Z"/></svg>